<svg xmlns="http://www.w3.org/2000/svg" viewBox="0 0 512 512" width="512" height="512" role="img" aria-label="BASE Station">
  <defs>
    <linearGradient id="bg" x1="0" y1="0" x2="1" y2="1">
      <stop offset="0" stop-color="#241c14"/>
      <stop offset="1" stop-color="#14100c"/>
    </linearGradient>
    <linearGradient id="chrome" x1="0" y1="0" x2="1" y2="1">
      <stop offset="0" stop-color="#FFD9A8"/>
      <stop offset="0.45" stop-color="#FFC26E"/>
      <stop offset="0.7" stop-color="#FF9A4D"/>
      <stop offset="1" stop-color="#FF6B4A"/>
    </linearGradient>
    <linearGradient id="chrome2" x1="0" y1="1" x2="1" y2="0">
      <stop offset="0" stop-color="#FF6B4A"/>
      <stop offset="1" stop-color="#FFC26E"/>
    </linearGradient>
    <filter id="soft" x="-20%" y="-20%" width="140%" height="140%">
      <feGaussianBlur stdDeviation="6" result="b"/>
      <feMerge><feMergeNode in="b"/><feMergeNode in="SourceGraphic"/></feMerge>
    </filter>
  </defs>
  <rect x="0" y="0" width="512" height="512" rx="112" fill="url(#bg)"/>
  <circle cx="256" cy="256" r="188" fill="none" stroke="url(#chrome2)" stroke-width="6" opacity="0.35"/>
  <circle cx="256" cy="256" r="168" fill="none" stroke="url(#chrome)" stroke-width="10" opacity="0.9"/>
  <path d="M256 96 L388 172 L388 340 L256 416 L124 340 L124 172 Z" fill="none" stroke="url(#chrome)" stroke-width="14" stroke-linejoin="round" filter="url(#soft)"/>
  <g fill="url(#chrome)">
    <rect x="190" y="236" width="20" height="40" rx="10"/>
    <rect x="222" y="206" width="20" height="100" rx="10"/>
    <rect x="254" y="176" width="20" height="160" rx="10"/>
    <rect x="286" y="214" width="20" height="84" rx="10"/>
    <rect x="318" y="246" width="20" height="20" rx="10"/>
  </g>
  <circle cx="256" cy="256" r="14" fill="#14100c" stroke="url(#chrome)" stroke-width="5"/>
</svg>
